<svg id="Layer_1" xmlns="http://www.w3.org/2000/svg" viewBox="0 0 514 251.7">
    <style>
        .st0{fill:#fff}.st1{fill:none;stroke:#231f20;stroke-width:5;stroke-miterlimit:10}
    </style>
    <circle class="st0" cx="396.5" cy="198.7" r="16.5"/>
    <circle class="st0" cx="114.5" cy="198.7" r="16.5"/>
    <path class="st0" d="M341.5 77.8h75.7c6.4 0 11.6 5.2 11.6 11.6v17.3c0 6.4-5.2 11.6-11.6 11.6h-75.7c-6.4 0-11.6-5.2-11.6-11.6V89.3c.1-6.3 5.2-11.5 11.6-11.5z"/>
    <path class="st0" d="M218.2 77.8h75.7c6.4 0 11.6 5.2 11.6 11.6v17.3c0 6.4-5.2 11.6-11.6 11.6h-75.7c-6.4 0-11.6-5.2-11.6-11.6V89.3c0-6.3 5.2-11.5 11.6-11.5z"/>
    <path class="st0" d="M93.5 77.8h75.7c6.4 0 11.6 5.2 11.6 11.6v17.3c0 6.4-5.2 11.6-11.6 11.6H93.5c-6.4 0-11.6-5.2-11.6-11.6V89.3c.1-6.3 5.2-11.5 11.6-11.5z"/>
    <path class="st0" d="M442.5 52.1H72.1c-6.4 0-11.6 5.2-11.6 11.6V149H454V63.7c0-6.4-5.1-11.6-11.5-11.6zm-261.3 54.5c0 6.4-5.2 11.6-11.6 11.6H94c-6.4 0-11.6-5.2-11.6-11.6V89.3c0-6.4 5.2-11.6 11.6-11.6h75.7c6.4 0 11.6 5.2 11.6 11.6v17.3zm124.8 0c0 6.4-5.2 11.6-11.6 11.6h-75.7c-6.4 0-11.6-5.2-11.6-11.6V89.3c0-6.4 5.2-11.6 11.6-11.6h75.7c6.4 0 11.6 5.2 11.6 11.6v17.3zm123.1 0c0 6.4-5.2 11.6-11.6 11.6h-75.7c-6.4 0-11.6-5.2-11.6-11.6V89.3c0-6.4 5.2-11.6 11.6-11.6h75.7c6.4 0 11.6 5.2 11.6 11.6v17.3z"/>
    <path class="st0" d="M60.2 149v22.6c0 6.4 5.2 11.6 11.6 11.6h370.4c6.4 0 11.6-5.2 11.6-11.6V149H60.2z"/>
    <title>
        TheBigCity
    </title>
    <g id="Outlines">
        <path class="st1" d="M71.4 52.1h370.4c6.4 0 11.6 5.2 11.6 11.6v107c0 6.4-5.2 11.6-11.6 11.6H71.4c-6.4 0-11.6-5.2-11.6-11.6v-107c.1-6.4 5.2-11.6 11.6-11.6z"/>
        <path class="st1" d="M93.9 77.8h75.7c6.4 0 11.6 5.2 11.6 11.6v17.3c0 6.4-5.2 11.6-11.6 11.6H93.9c-6.4 0-11.6-5.2-11.6-11.6V89.3c.1-6.3 5.3-11.5 11.6-11.5z"/>
        <path class="st1" d="M218.8 77.8h75.7c6.4 0 11.6 5.2 11.6 11.6v17.3c0 6.4-5.2 11.6-11.6 11.6h-75.7c-6.4 0-11.6-5.2-11.6-11.6V89.3c0-6.3 5.2-11.5 11.6-11.5z"/>
        <path class="st1" d="M341.9 77.8h75.7c6.4 0 11.6 5.2 11.6 11.6v17.3c0 6.4-5.2 11.6-11.6 11.6h-75.7c-6.4 0-11.6-5.2-11.6-11.6V89.3c0-6.3 5.2-11.5 11.6-11.5z"/>
        <path class="st1" d="M59.9 149.2h393.5"/>
        <circle class="st1" cx="114.5" cy="198.7" r="16.5"/>
        <circle class="st1" cx="396.1" cy="198.7" r="16.5"/>
    </g>
</svg>
