<?xml version="1.0" encoding="utf-8"?>
<!-- Generator: Adobe Illustrator 19.2.0, SVG Export Plug-In . SVG Version: 6.00 Build 0)  -->
<svg version="1.1" id="Layer_1" xmlns="http://www.w3.org/2000/svg" xmlns:xlink="http://www.w3.org/1999/xlink" x="0px" y="0px"
	 viewBox="0 0 467 156" style="enable-background:new 0 0 467 156;" xml:space="preserve">
<style type="text/css">
	.st0{stroke:#000000;stroke-width:5;stroke-miterlimit:10;}
</style>
<title>mix</title>
<desc>Created with Sketch.</desc>
<g id="Page-1">
	<g id="mix" transform="translate(-1.000000, 0.000000)">
		<path id="Shape" class="st0" d="M5.6,118.5c8.5-31.9,20.6-63,36.5-92c3.3-6,7-12.3,12.9-16.1C56.3,9.5,58.6,8,60.2,8
			c3.6,0,3.7,3.1,3.9,5.7c0.4,4.6,0.6,9.2,0.9,13.7c0.9,17.3,1.2,34.7,0.9,52.1c-0.4,20-1.7,40-3.7,59.8c-0.3,2.8,4.3,3.4,4.9,0.7
			c5.4-25.1,12.9-49.7,22.5-73.5c4.8-11.9,10.1-23.7,16-35.1c5.2-10.1,11.1-20.3,21.2-26.2c-1.2-0.5-2.4-1-3.7-1.5
			c3.9,27.8,7.9,55.7,11.8,83.5c3,21.4,4.3,46.3,20.8,62.2c1.2,1.1,3.1,0.9,3.9-0.5c13.1-22.6,24.6-46.1,34.4-70.4
			c-1.6-0.2-3.3-0.4-4.9-0.7c-2.2,18-4.4,36.4-1.3,54.5c1,5.6,3,12.2,8.2,15.4c5,3.1,10.7,1.3,14.9-2.3
			c10.5-9.1,17.7-23.2,24.2-35.3c6.9-12.8,13.2-26.1,21.4-38.2c6.2-9.2,26.2-36.7,38.8-23.6c5.1,5.3,6.5,14.3,8.7,21
			c2.7,8.3,5.7,16.6,9.1,24.7c6.7,16.4,14.5,32.5,23.6,47.7c3.1,5.2,6.9,10.8,12.8,13.1c6,2.3,11.9,0,16.4-4.2
			c6.3-5.9,10.8-14.2,15.1-21.6c4.6-7.9,8.6-16.2,12.1-24.7c7.3-17.6,12-36.1,14.3-54.9c-1.7,0-3.3,0-5,0c0,26.9,0.4,55.8,13.4,80.1
			c4.2,7.9,14.4,25.9,25.8,20.8c5.7-2.6,9.8-9.7,13.3-14.7c4.8-6.7,8.8-13.9,12.3-21.3c1.4-2.9-3-5.4-4.3-2.5
			c-2.7,5.8-5.8,11.5-9.3,16.9c-3.4,5.2-7.3,12-12.2,15.8c-10,7.6-22.5-19.4-25.2-26.4c-8.3-21.8-8.6-45.7-8.6-68.7
			c0-3.3-4.6-3.1-5,0c-3.9,32-15.4,62.9-33.6,89.5c-4.2,6.2-11,15.4-19.5,10.1c-6.2-3.9-9.8-12.4-13.2-18.6
			c-8.2-14.9-15.4-30.4-21.4-46.3c-2.9-7.6-5.5-15.4-7.9-23.2c-1.6-5.3-3.3-11-6.9-15.3c-9.2-11.1-22.7-3.4-31.2,4.3
			c-19.8,18.1-29.6,43.9-42.8,66.7c-4,6.8-8.3,13.6-13.3,19.7c-2.5,3.1-5.7,7.5-10,7.9c-4.9,0.5-7.4-4.5-8.6-8.4
			c-2.9-9-2.7-19.4-2.3-28.7c0.4-9.8,1.6-19.6,2.7-29.3c0.4-3-4-3-4.9-0.7c-9.6,23.8-21,46.9-33.9,69.2c1.3-0.2,2.6-0.3,3.9-0.5
			c-16.6-15.9-17.1-42.6-20.1-63.9c-3.7-26.6-7.5-53.1-11.2-79.7c-0.2-1.6-2.4-2.2-3.7-1.5c-9.5,5.5-15.8,14.4-20.9,23.9
			C97.6,36,92.3,47.9,87.3,59.9c-10.6,25.4-18.7,51.7-24.6,78.6c1.6,0.2,3.3,0.4,4.9,0.7c4.1-40.1,4.9-80.5,2.3-120.8
			c-0.3-5.3,0.5-15-6.9-15.8c-6.5-0.7-13.1,5-17,9.5c-5.2,6.1-8.7,13.4-12.4,20.5c-4.2,8.2-8.1,16.5-11.7,24.9
			C13.6,76.8,6.7,96.7,1.2,117C-0.1,120.3,4.7,121.6,5.6,118.5z"/>
		<path id="Shape_1_" class="st0" d="M425.1,38.4c3.2,0,3.2-5,0-5C421.9,33.4,421.9,38.4,425.1,38.4z"/>
		<path id="Shape_2_" class="st0" d="M299.5,140.8c13.8-25.5,28.1-50.8,42.8-75.7c1.6-2.8-2.7-5.3-4.3-2.5
			c-14.8,25-29,50.2-42.8,75.7C293.6,141.2,297.9,143.7,299.5,140.8z"/>
		<path id="Shape_3_" class="st0" d="M191,60.2c3.2,0,3.2-5,0-5S187.8,60.2,191,60.2z"/>
	</g>
</g>
</svg>
